<svg id="Layer_1" data-name="Layer 1" xmlns="http://www.w3.org/2000/svg" viewBox="0 0 53 53"><defs><style>.cls-1{fill:#83becd}.cls-2{fill:#000101}.cls-3{fill:#46595a}</style></defs><title>icons</title><path class="cls-1" d="M1.225 26.5L26.497 1.228 51.77 26.5 26.496 51.772z"/><path class="cls-2" d="M26.5 51.77l.61-.61L2.45 26.5 26.5 2.45 50.55 26.5 25.89 51.16l.61.61.61-.61-.61.61.61.62L53 26.5 26.5 0 0 26.5 26.5 53l.61-.61-.61-.62z"/><path class="cls-2" d="M6.655 26.5L26.497 6.66l19.84 19.84-19.84 19.84z"/><path class="cls-1" d="M26.5 16.89a9.61 9.61 0 1 0 9.61 9.61 9.62 9.62 0 0 0-9.61-9.61m0 23.81a14.2 14.2 0 1 1 14.2-14.2 14.21 14.21 0 0 1-14.2 14.2"/><path class="cls-2" d="M26.5 35.25a8.75 8.75 0 1 1 8.75-8.75 8.76 8.76 0 0 1-8.75 8.75m0-23.81A15.06 15.06 0 1 0 41.56 26.5 15.08 15.08 0 0 0 26.5 11.44m0 25.56A10.48 10.48 0 1 0 16 26.5 10.49 10.49 0 0 0 26.5 37m0-23.81A13.33 13.33 0 1 1 13.17 26.5 13.33 13.33 0 0 1 26.5 13.17"/><path class="cls-1" d="M25.51 9.73h1.99v8.92h-1.99zM25.51 34.33h1.99v8.91h-1.99zM34.35 25.51h8.91v1.99h-8.91zM9.74 25.51h8.91v1.99H9.74zM28.36 26.51a1.86 1.86 0 1 1-1.86-1.86 1.86 1.86 0 0 1 1.86 1.86"/><path class="cls-3" d="M26.5 19.91a6.59 6.59 0 0 0-6.59 6.59h.87a5.72 5.72 0 1 1 1.67 4 5.7 5.7 0 0 1-1.67-4h-.87a6.59 6.59 0 1 0 6.59-6.59"/></svg>