<svg id="Layer_1" data-name="Layer 1" xmlns="http://www.w3.org/2000/svg" viewBox="0 0 53 53"><defs><style>.cls-1{fill:#83becd}.cls-2{fill:#000101}.cls-3{fill:#28454d}.cls-4{fill:#57828d}.cls-5{fill:#45585a}</style></defs><title>icons</title><path class="cls-1" d="M1.225 26.5L26.497 1.228 51.77 26.5 26.496 51.772z"/><path class="cls-2" d="M26.5 51.77l.61-.61L2.45 26.5 26.5 2.45 50.55 26.5 25.89 51.16l.61.61.61-.61-.61.61.61.62L53 26.5 26.5 0 0 26.5 26.5 53l.61-.61-.61-.62z"/><path class="cls-2" d="M6.655 26.5L26.497 6.66l19.84 19.84-19.84 19.84z"/><path class="cls-3" d="M21.04 39L8.12 25.09l2.33-2.4L21.04 39zM22.06 37.6l-8.6-17.86 3.12-3.11 5.48 20.97zM24.86 39.38l-4.68-26.43 4.67-4.7.39 31.13h-.38zM27.21 35.19l1.74-24.35 2.29 2.35-4.03 22zM28.42 37.79l6.84-20.59 4.61 4.53-11.45 16.06zM30.45 38.81l11.91-14.84 2.29 2.54-14.2 12.3z"/><path class="cls-4" d="M22.41 41.23l.52-.55s1.66-1.85 1.66-7.3a11.57 11.57 0 0 0-3.4-8.44l-.63-.54 5.44-.2h.7l5.51.21-.63.54a11.61 11.61 0 0 0-3.4 8.44c0 5.46 1.57 7.29 1.59 7.31l.48.54h-7.84z"/><path class="cls-2" d="M25.71 23.83v.05l-4.32.17-1.66.06L21 25.19a11.3 11.3 0 0 1 3.28 8.19c0 5.28-1.57 7.07-1.58 7.08l-1 1.08H31l-1-1.08s-1.5-1.8-1.5-7.09a11.22 11.22 0 0 1 3.28-8.19l1.26-1.08-1.66-.06-4.32-.17h-.67zm.73.67l4.95.19a11.83 11.83 0 0 0-3.51 8.68c0 5.69 1.67 7.53 1.67 7.53h-6.38s1.75-1.83 1.75-7.53a11.83 11.83 0 0 0-3.51-8.68l4.95-.19h.08z"/><path class="cls-1" d="M38.44 19.08c0-3.39-3.55-6.14-7.93-6.14h-.37a9.37 9.37 0 0 0-8.8.09C17.25 13.33 14 16 14 19.24a5 5 0 0 0 .73 2.59 2.43 2.43 0 0 0-.22 1c0 1.7 1.78 3.07 4 3.07a4.8 4.8 0 0 0 2.15-.5 10.48 10.48 0 0 0 1.4.1 10.36 10.36 0 0 0 1.84-.16 3.43 3.43 0 0 0 2.64 1.12 3.34 3.34 0 0 0 2.75-1.28 10 10 0 0 0 1.22.08 10.21 10.21 0 0 0 1.15-.07 4.67 4.67 0 0 0 2.51.71c2.19 0 4-1.37 4-3.07a2.48 2.48 0 0 0-.35-1.25 5 5 0 0 0 .66-2.45"/><path class="cls-2" d="M38.44 19.08H39a6.12 6.12 0 0 0-2.55-4.81 9.79 9.79 0 0 0-6-1.92h-.33v.59l.28-.52a10 10 0 0 0-9.37.1l.31.48v-.59a9.64 9.64 0 0 0-5.53 2.12 6.11 6.11 0 0 0-2.33 4.66 5.65 5.65 0 0 0 .82 2.89l.51-.3-.54-.23a3 3 0 0 0-.27 1.2 3.35 3.35 0 0 0 1.39 2.64 5.18 5.18 0 0 0 3.16 1 5.41 5.41 0 0 0 2.42-.56l-.26-.53-.08.58a10.71 10.71 0 0 0 3.37 0l-.1-.58-.45.38a4 4 0 0 0 3.1 1.32 3.92 3.92 0 0 0 3.23-1.53l-.48-.34-.07.58a9.85 9.85 0 0 0 2.5 0l-.07-.58-.32.5a5.26 5.26 0 0 0 2.82.8 5.18 5.18 0 0 0 3.17-1 3.35 3.35 0 0 0 1.39-2.64 3.08 3.08 0 0 0-.43-1.55l-.51.3.51.29a5.55 5.55 0 0 0 .71-2.75h-1.15a4.38 4.38 0 0 1-.59 2.16l-.17.29.17.29a1.9 1.9 0 0 1 .27 1 2.18 2.18 0 0 1-.93 1.71 4 4 0 0 1-2.44.78 4.08 4.08 0 0 1-2.16-.66l-.18-.11h-.21a8.72 8.72 0 0 1-2.23 0h-.35l-.2.29a2.76 2.76 0 0 1-2.27 1 2.84 2.84 0 0 1-2.19-.91l-.22-.26-.34.06a9.54 9.54 0 0 1-3.06.06h-.18l-.16.08a4.22 4.22 0 0 1-1.89.43 4 4 0 0 1-2.44-.78 2.18 2.18 0 0 1-.93-1.71 1.85 1.85 0 0 1 .17-.73l.12-.27-.15-.26a4.45 4.45 0 0 1-.65-2.29 4.93 4.93 0 0 1 1.91-3.76 8.47 8.47 0 0 1 4.85-1.85h.13l.12-.07a8.78 8.78 0 0 1 8.23-.09l.12.07h.5a8.61 8.61 0 0 1 5.25 1.67 5 5 0 0 1 2.09 3.88h.59z"/><path class="cls-1" d="M31.18 38.83a.73.73 0 0 0-.63.38.93.93 0 0 0-1.42-.09.65.65 0 0 0-.57-.35.65.65 0 0 0-.51.27 1 1 0 0 0-.84-.51 1 1 0 0 0-.75.37 1.06 1.06 0 0 0-1.35.12.62.62 0 0 0-1 0 1 1 0 0 0-.84-.51 1 1 0 0 0-.75.37 1.07 1.07 0 0 0-.6-.19c-.62 0-1.55.7-1.12 1.19a9.53 9.53 0 0 0 1.12 1.19l4.52 4.3c.2.22 4.85-4.79 4.85-4.79l.41-.41a.81.81 0 0 0 .23-.57.77.77 0 0 0-.75-.79"/><path class="cls-2" d="M31.18 38.83v-.25a1 1 0 0 0-.85.5l.22.13.2-.16a1.19 1.19 0 0 0-1.8-.11l.18.18.23-.12a.89.89 0 0 0-1.51-.11l.2.11.22-.13a1.22 1.22 0 0 0-1.06-.64 1.21 1.21 0 0 0-.95.47l.2.16.14-.21a1.31 1.31 0 0 0-1.67.14l.19.21.2-.16a.88.88 0 0 0-1.41 0l.2.16.22-.13a1.19 1.19 0 0 0-2-.17l.2.16.14-.21a1.33 1.33 0 0 0-.75-.24 1.75 1.75 0 0 0-1 .34 1.51 1.51 0 0 0-.36.35.83.83 0 0 0-.17.48.68.68 0 0 0 .17.45l.6.69c.13.14.25.25.54.52l2.34 2.23 1.5 1.43.67.64.18-.18-.19.17a.28.28 0 0 0 .21.09.36.36 0 0 0 .15 0 2.24 2.24 0 0 0 .44-.33c.62-.54 1.72-1.66 2.67-2.66s1.75-1.85 1.75-1.86l-.19-.17.18.18.41-.41a1.06 1.06 0 0 0 .3-.75 1 1 0 0 0-1-1v.51a.47.47 0 0 1 .34.15.57.57 0 0 1 0 .78l-.41.42-.7.75c-.63.67-1.59 1.68-2.43 2.52-.42.42-.8.8-1.1 1.07l-.36.31-.1.07.06.14v-.19h-.02l.06.14v.08l.17-.15a.23.23 0 0 0-.17-.08v.23l.17-.15-4.53-4.32c-.29-.27-.4-.37-.51-.49l-.59-.68v-.11a.34.34 0 0 1 0-.18 1.19 1.19 0 0 1 .41-.33 1.14 1.14 0 0 1 .5-.14.81.81 0 0 1 .46.15l.2.13.15-.19a.7.7 0 0 1 .54-.28.71.71 0 0 1 .61.38l.19.34.24-.31a.39.39 0 0 1 .32-.19.38.38 0 0 1 .3.15l.18.25.2-.19a.8.8 0 0 1 1-.09l.2.13.15-.19a.69.69 0 0 1 .54-.28.71.71 0 0 1 .61.38l.2.34.24-.31a.39.39 0 0 1 .33-.19.4.4 0 0 1 .34.21l.17.3.24-.24a.68.68 0 0 1 1 .07l.23.3.19-.32a.48.48 0 0 1 .41-.25v-.24z"/><path class="cls-1" d="M26.34 33.64c-4.66 0-11.6-.7-11.6-2.64 0-1.29 3-2 5.56-2.28a.33.33 0 0 1 .06.65c-1.94.36-2.11.75-2.12.76.14.42 2.93 1.19 8 1.19s7.85-.78 8-1.21c0 0-.24-.42-2.39-.79a.33.33 0 0 1 .06-.65c2.72.32 6 1 6 2.33 0 1.94-6.94 2.64-11.6 2.64"/><path class="cls-2" d="M31.94 28.34a.66.66 0 0 0-.11 1.3 8.42 8.42 0 0 1 1.84.48 23.08 23.08 0 0 1-7.39.87 23.1 23.1 0 0 1-7.4-.87 7.66 7.66 0 0 1 1.58-.43.66.66 0 0 0-.12-1.3h-.08c-5.85.76-5.85 2.15-5.85 2.61 0 1 1.22 1.74 3.83 2.28a42.31 42.31 0 0 0 8.1.69 42.31 42.31 0 0 0 8.1-.69C37 32.75 38.27 32 38.27 31c0-1.92-4.7-2.47-6.25-2.66h-.08zm0 .66c3.38.4 5.67 1.15 5.67 2 0 1.28-5 2.31-11.27 2.31s-11.27-1-11.27-2.31c0-.82 2.11-1.55 5.28-2-1.48.32-2.35.7-2.35 1.12 0 .85 3.73 1.53 8.32 1.53s8.28-.65 8.28-1.53c0-.44-1-.84-2.66-1.12"/><path class="cls-1" d="M18.66 16.62s-2.76 1.64-1.2 2.95c0 0-.29.73.62.76 0 0 .65 1.42 1.6.73a1.88 1.88 0 0 0 2.55-.25z"/><path class="cls-2" d="M18.51 16.37a6.06 6.06 0 0 0-.89.66 3.75 3.75 0 0 0-.63.71 1.73 1.73 0 0 0-.31.93 1.45 1.45 0 0 0 .58 1.12l.19-.23-.27-.11a1 1 0 0 0-.07.36.76.76 0 0 0 .21.54 1.05 1.05 0 0 0 .74.27v-.29l-.27.12a2.69 2.69 0 0 0 .33.52 1.83 1.83 0 0 0 .41.38 1.12 1.12 0 0 0 .61.19 1.17 1.17 0 0 0 .69-.25l-.17-.24-.17.24a2.61 2.61 0 0 0 1.41.46 2 2 0 0 0 1.55-.75l-.45-.38a1.36 1.36 0 0 1-1.08.55 1.88 1.88 0 0 1-.76-.17l-.23-.12h-.06l-.17-.13-.17.13a.58.58 0 0 1-.35.13.53.53 0 0 1-.29-.1 1.47 1.47 0 0 1-.38-.4l-.11-.18v-.05l-.13-.28h-.18a.49.49 0 0 1-.34-.1.17.17 0 0 1 0-.12v-.1h-.1.1-.1.1l.08-.2-.16-.14a.86.86 0 0 1-.37-.67 1.15 1.15 0 0 1 .21-.61 3.74 3.74 0 0 1 .82-.84l.34-.22.11-.07z"/><path class="cls-1" d="M26.19 17.33a.89.89 0 0 1 1.35-.51s.9-2 2.07-.27c0 0 1.38-2.82 2.58 0"/><path class="cls-2" d="M26.46 17.44h-.1.1-.1.1a1.16 1.16 0 0 1 .17-.28.71.71 0 0 1 .18-.16.39.39 0 0 1 .2-.06.67.67 0 0 1 .36.13l.29.18.14-.31a2.34 2.34 0 0 1 .29-.45 1.21 1.21 0 0 1 .27-.24.51.51 0 0 1 .27-.09.52.52 0 0 1 .29.1 1.7 1.7 0 0 1 .43.46l.29.42.22-.45a3.54 3.54 0 0 1 .4-.61 1.79 1.79 0 0 1 .36-.33.61.61 0 0 1 .38-.15.56.56 0 0 1 .39.19 2.74 2.74 0 0 1 .55.9l.54-.23a3.29 3.29 0 0 0-.68-1.09A1.15 1.15 0 0 0 31 15a1.23 1.23 0 0 0-.71.25 3.48 3.48 0 0 0-.93 1.16l.26.13.24-.17a2.29 2.29 0 0 0-.59-.62 1 1 0 0 0-1.24 0 2.49 2.49 0 0 0-.75.94l.27.12.16-.25a1.27 1.27 0 0 0-.71-.21 1 1 0 0 0-.52.15 1.42 1.42 0 0 0-.44.46 1.67 1.67 0 0 0-.14.27z"/><path class="cls-1" d="M29.25 21.45s2.94 2.31 6.26-1.29z"/><path class="cls-2" d="M29.07 21.68a4.33 4.33 0 0 0 2.51.79 5.65 5.65 0 0 0 4.15-2.11L35.3 20a5.06 5.06 0 0 1-3.72 1.92 3.85 3.85 0 0 1-1.58-.38 3.5 3.5 0 0 1-.44-.23l-.11-.07z"/><path class="cls-5" d="M16.85 18a2.16 2.16 0 0 0-.44 2.1 1.4 1.4 0 0 0 1 1.17c.4 0 1.19.86 2.11.86a1.46 1.46 0 0 0 .31 0c.91-.19 1.37 0 2-.6a1.85 1.85 0 0 1-.91.24 2.56 2.56 0 0 1-1.23-.35 1.09 1.09 0 0 1-.52.14 1.11 1.11 0 0 1-.61-.19 1.83 1.83 0 0 1-.41-.37 2.64 2.64 0 0 1-.25-.37 1 1 0 0 1-.57-.26.76.76 0 0 1-.21-.53 1.08 1.08 0 0 1 0-.15 1.39 1.39 0 0 1-.45-1 1.53 1.53 0 0 1 .18-.69"/><path class="cls-2" d="M17.91 17a4.54 4.54 0 0 0-1.06 1 1.53 1.53 0 0 0-.16.66 1.39 1.39 0 0 0 .45 1 1.08 1.08 0 0 0 0 .15.76.76 0 0 0 .21.53 1 1 0 0 0 .57.26 2.7 2.7 0 0 0 .25.37 1.83 1.83 0 0 0 .41.37 1.11 1.11 0 0 0 .61.19 1.1 1.1 0 0 0 .52-.14 2.56 2.56 0 0 0 1.23.35 1.86 1.86 0 0 0 .91-.24 3.48 3.48 0 0 0 .3-.34 8.86 8.86 0 0 1-1.65.22.94.94 0 0 1-.77-.22.24.24 0 0 0-.21-.16.79.79 0 0 0-.24.06.9.9 0 0 1-.29.06 1.1 1.1 0 0 1-.86-.73s-.93-.27-.67-.86c0 0-1.17-1 .44-2.52"/><path class="cls-5" d="M35.62 20.47a5.58 5.58 0 0 1-4 2 4.48 4.48 0 0 1-1.96-.47A3.38 3.38 0 0 0 32 23.08a3.82 3.82 0 0 0 1.62-.39c2.08-1 2.07-1.86 1.95-2.22"/><path class="cls-2" d="M35.53 20.3a5.17 5.17 0 0 1-3.94 1.81 6.36 6.36 0 0 1-2.22-.42 2.84 2.84 0 0 0 .29.34 4.48 4.48 0 0 0 1.92.44 5.58 5.58 0 0 0 4-2 .65.65 0 0 0-.09-.18"/></svg>