<svg id="Layer_1" data-name="Layer 1" xmlns="http://www.w3.org/2000/svg" viewBox="0 0 53 53"><defs><style>.cls-1{fill:#83becd}.cls-2{fill:#000101}.cls-3{fill:#45585a}</style></defs><title>icons</title><path class="cls-1" d="M26.5 51.46L1.23 26.5 26.5 1.55 51.77 26.5 26.5 51.46z"/><path class="cls-2" d="M26.5 51.46l.61-.61L2.45 26.5 26.5 2.76 50.55 26.5 25.89 50.85l.61.61.61-.61-.61.61.61.6L53 26.5 26.5.34 0 26.5l26.5 26.17.61-.61-.61-.6z"/><path class="cls-2" d="M26.5 46.09L6.66 26.5 26.5 6.92 46.34 26.5 26.5 46.09z"/><path class="cls-1" d="M27.83 43.09a.67.67 0 0 1-.35-.1c-5.69-3.57-6-8.35-5.25-11.76a.89.89 0 0 0-.1-.58.25.25 0 0 0-.16 0 3.59 3.59 0 0 0-1.67.69 9.45 9.45 0 0 0-3.6 7.28.65.65 0 0 1-.58.67H16a.66.66 0 0 1-.64-.51c-1.44-6.5 1.73-10.1 4.64-11.98a.83.83 0 0 0 .35-.54s-.13-.4-1.68-.72a9.07 9.07 0 0 0-1.19-.08 9.86 9.86 0 0 0-6.59 2.74.67.67 0 0 1-.89.07.65.65 0 0 1-.15-.86c2.3-3.58 5.51-5.48 9.27-5.48a12.21 12.21 0 0 1 1.74.13h.33a2.23 2.23 0 0 0 .36 0A.54.54 0 0 0 22 22s.22-.39-.54-1.78a9.72 9.72 0 0 0-7.24-3.45h-.07a.65.65 0 0 1-.15-1.25 14.61 14.61 0 0 1 3.13-.36A10.39 10.39 0 0 1 26 20a.93.93 0 0 0 .51.38c.11 0 .5-.3.87-1.65A9.4 9.4 0 0 0 24.73 11a.64.64 0 0 1-.07-.87.67.67 0 0 1 .87-.13c5.48 3.43 5.94 8 5.34 11.3v.13a1.36 1.36 0 0 0 .06.87.19.19 0 0 0 .18 0 3.36 3.36 0 0 0 1.52-.59 9.44 9.44 0 0 0 3.7-7.35.65.65 0 0 1 .58-.67H37a.66.66 0 0 1 .64.51c1.38 6.09-1.4 9.62-4 11.53a.65.65 0 0 1-.18.15 1.24 1.24 0 0 0-.62.65c0 .11.32.48 1.54.86a9 9 0 0 0 1.19.08 9.8 9.8 0 0 0 6.58-2.73.67.67 0 0 1 .85.01.64.64 0 0 1 .15.86c-2.3 3.58-5.51 5.48-9.27 5.48a12.31 12.31 0 0 1-1.93-.16l-.31-.05h-.22A.63.63 0 0 0 31 31s-.21.41.65 1.83a9.75 9.75 0 0 0 7.15 3.34h.08a.65.65 0 0 1 .12 1.32 14.6 14.6 0 0 1-3.12.36 10.3 10.3 0 0 1-8.6-4.41.67.67 0 0 1-.11-.15L27 33a.76.76 0 0 0-.43-.32c-.11 0-.51.3-.94 1.61A9.42 9.42 0 0 0 28.27 42a.64.64 0 0 1 .07.87.66.66 0 0 1-.52.25"/><path class="cls-2" d="M25.18 9.27a1.33 1.33 0 0 0-1 .51 1.29 1.29 0 0 0 .15 1.75 8.65 8.65 0 0 1 2.49 7.09 5.6 5.6 0 0 1-.31.86 11 11 0 0 0-9.33-5 15.25 15.25 0 0 0-3.27.38 1.3 1.3 0 0 0 .29 2.57h.09a9 9 0 0 1 6.68 3.16 5.52 5.52 0 0 1 .37.83 1.29 1.29 0 0 0-.42-.07h-.14a12.73 12.73 0 0 0-1.64-.11c-2.79 0-6.75 1-9.82 5.78a1.29 1.29 0 0 0 .31 1.73 1.33 1.33 0 0 0 1.77-.15 9.2 9.2 0 0 1 6.1-2.53 8.31 8.31 0 0 1 1.1.07 5.86 5.86 0 0 1 .82.23c-4.21 2.83-5.87 7.24-4.69 12.47a1.32 1.32 0 0 0 1.29 1h.18a1.31 1.31 0 0 0 1.15-1.34 8.68 8.68 0 0 1 3.34-6.73 6.06 6.06 0 0 1 .83-.43c-1 5 1 9.27 5.6 12.15a1.33 1.33 0 0 0 1.75-.3 1.29 1.29 0 0 0-.15-1.75 8.67 8.67 0 0 1-2.48-7.06 5.61 5.61 0 0 1 .34-.83 1.22 1.22 0 0 0 .25.35 10.92 10.92 0 0 0 9 4.52 15.25 15.25 0 0 0 3.27-.37 1.3 1.3 0 0 0-.29-2.57h-.04a9.06 9.06 0 0 1-6.6-3.06 6 6 0 0 1-.48-.93h.12a12.93 12.93 0 0 0 2 .16c2.79 0 6.76-1 9.83-5.78a1.29 1.29 0 0 0-.31-1.73 1.33 1.33 0 0 0-1.77.14 9.2 9.2 0 0 1-6.1 2.52 8.15 8.15 0 0 1-1-.07 5.25 5.25 0 0 1-.76-.3 1.31 1.31 0 0 0 .3-.14c2.79-2 5.69-5.77 4.25-12.16a1.32 1.32 0 0 0-1.29-1h-.15a1.31 1.31 0 0 0-1.15 1.33 8.69 8.69 0 0 1-3.41 6.78 5.54 5.54 0 0 1-.75.37 1.37 1.37 0 0 0 0-.2c.62-3.48.11-8.31-5.65-11.92a1.32 1.32 0 0 0-.71-.2m0 1.3c5.21 3.27 5.63 7.6 5 10.76s-.31 1.65.95 1.65a4 4 0 0 0 1.89-.7 10.06 10.06 0 0 0 4-7.91c1.31 5.8-1.32 9.13-3.94 11s-2.76 1.53 1.1 2.72a9.57 9.57 0 0 0 1.34.09 10.45 10.45 0 0 0 7.07-2.94c-2.6 4.05-5.88 5.17-8.71 5.17a11.6 11.6 0 0 1-1.84-.14H31.41c-.8 0-1.93.37-.38 2.94a10.33 10.33 0 0 0 7.77 3.72h.08a13.84 13.84 0 0 1-3 .34A9.64 9.64 0 0 1 27.76 33l-.22-.32a1.4 1.4 0 0 0-1-.62C26 32 25.48 32.5 25 34.14a10 10 0 0 0 2.88 8.3c-5.47-3.44-5.72-7.94-5-11.12A1.06 1.06 0 0 0 22 30a4.22 4.22 0 0 0-2 .79 10.05 10.05 0 0 0-4 7.81c-1.39-6.14 1.64-9.52 4.4-11.28.54-.48 1.59-1.76-1.6-2.42a9.59 9.59 0 0 0-1.33-.09 10.44 10.44 0 0 0-7.07 2.95c2.6-4.05 5.88-5.17 8.71-5.17a11.57 11.57 0 0 1 1.78.14h.27a2.72 2.72 0 0 0 .42 0c.78 0 1.79-.4.42-2.89a10.3 10.3 0 0 0-7.79-3.74h-.06a13.84 13.84 0 0 1 3-.34 9.7 9.7 0 0 1 8.35 4.56 1.54 1.54 0 0 0 1.06.67c.49 0 1.06-.49 1.52-2.17a10 10 0 0 0-2.89-8.31"/><path class="cls-2" d="M26.55 19.1v.26l.06-.14zm-7.2 7.36h-.3.19l.11-.07m14.45 0l-.09.05h.36zm-7.21 7.13l-.06.13v.2-.3z"/><path class="cls-3" d="M26.84 21a.77.77 0 0 1-.3.06.85.85 0 0 1-.28-.06l-.6 3.87-2.88-2.09 2.12 2.85-3.9.58a1 1 0 0 1-.15.58l4 .61-2.12 2.85 2.88-2.09.61 3.92a.75.75 0 0 1 .31-.08.82.82 0 0 1 .3.06l.61-3.93 2.88 2.09-2.12-2.85 3.92-.59a.78.78 0 0 1 .06-.57l-4-.6 2.12-2.85-2.88 2.09zm-.29 5.53z"/><path class="cls-2" d="M26.57 19.22l-.06.14-.25 1.64a.86.86 0 0 0 .29.05.75.75 0 0 0 .3-.06zm-5.53 7l-1.69.26-.11.07 1.64.25a1 1 0 0 0 .12-.59m11.16 0a.78.78 0 0 0-.06.57l1.61-.24h-.05l.09-.05zM26.53 32a.77.77 0 0 0-.27.05l.26 1.65.06-.13.24-1.54a.83.83 0 0 0-.3-.06"/><path class="cls-2" d="M26.55 15.25L26 19l-.75 4.82-2.1-1.52L20 20.06l2.28 3.06 1.54 2.07-4.82.74-3.81.58 3.81.57 4.88.74-1.58 2.07L20 33l3.1-2.25 2.1-1.52L26 34l.58 3.76.55-3.76.75-4.82L30 30.71 33.08 33l-2.28-3.11-1.54-2.07 4.88-.74 3.86-.57-3.81-.58-4.88-.74 1.54-2.07 2.28-3.06L30 22.31l-2.1 1.52-.77-4.83zm0 11.26zm0-7.41l.89 5.77 2.88-2.09-2.12 2.85 5.84.88-5.85.88 2.12 2.85-2.88-2.09-.89 5.77-.89-5.77-2.88 2.09 2.12-2.85-5.89-.88 5.84-.88-2.12-2.85 2.88 2.09z"/></svg>