<svg id="Layer_1" data-name="Layer 1" xmlns="http://www.w3.org/2000/svg" viewBox="0 0 53 53"><defs><style>.cls-1{fill:#83becd}.cls-2{fill:#000101}.cls-3{fill:#293232}</style></defs><title>icons</title><path class="cls-1" d="M1.225 26.5L26.497 1.228 51.77 26.5 26.496 51.772z"/><path class="cls-2" d="M26.5 51.77l.61-.61L2.45 26.5 26.5 2.45 50.55 26.5 25.89 51.16l.61.61.61-.61-.61.61.61.62L53 26.5 26.5 0 0 26.5 26.5 53l.61-.61-.61-.62z"/><path class="cls-2" d="M6.655 26.5L26.497 6.66l19.84 19.84-19.84 19.84z"/><path class="cls-1" d="M26.52 43.68h-.06a6 6 0 0 1-1.26-.19 4 4 0 0 0-.4-.08 1.23 1.23 0 0 1-.46-.1 1.53 1.53 0 0 1-.75.17 2.23 2.23 0 0 1-.4 0 1.45 1.45 0 0 1-1.35-1.74 6.43 6.43 0 0 0-.18-2c-.43-1.86-2.87-2-3.36-2a2.75 2.75 0 0 0-.5 0 3.34 3.34 0 0 1-.6.06 1.53 1.53 0 0 1-1.34-.58l-.11-.16v-.2a3.16 3.16 0 0 0-.83-2c-1.33-.63-1.75-2.31-1.16-4.61a3.33 3.33 0 0 1 .84-1.65v-.32a18.63 18.63 0 0 1 .32-6.71 31.92 31.92 0 0 1 2-7.21l.12-.3c.14-.35.55-1.42 4.17-2.87A4.32 4.32 0 0 1 22.7 11a3.6 3.6 0 0 0 .83-.12 11.91 11.91 0 0 1 2.68-.21h.63a11.91 11.91 0 0 1 2.68.21 3.6 3.6 0 0 0 .83.12 4.31 4.31 0 0 1 1.55.35c3.61 1.44 4 2.51 4.17 2.87l.12.29a31.93 31.93 0 0 1 2 7.21 18.63 18.63 0 0 1 .32 6.71v.32a3.33 3.33 0 0 1 .84 1.65c.59 2.3.17 4-1.16 4.61a3.15 3.15 0 0 0-.83 2v.19l-.11.16a1.52 1.52 0 0 1-1.34.58 3.31 3.31 0 0 1-.6-.06 2.89 2.89 0 0 0-.5 0c-.49 0-2.94.09-3.36 2a6.4 6.4 0 0 0-.18 2 1.43 1.43 0 0 1-1.3 1.73 2.18 2.18 0 0 1-.45 0 1.53 1.53 0 0 1-.75-.17 1.28 1.28 0 0 1-.48.1l-.37.08a6 6 0 0 1-1.26.19h-.14z"/><path class="cls-2" d="M26.84 9.79h-.63a11 11 0 0 0-2.9.24 2.84 2.84 0 0 1-.66.1 5.1 5.1 0 0 0-1.82.4c-3.54 1.41-4.34 2.58-4.64 3.34l-.11.29a32.8 32.8 0 0 0-2 7.38 19.39 19.39 0 0 0-.33 6.86 4.72 4.72 0 0 0-.78 1.74c-1 3.75.68 5.1 1.53 5.53a3.72 3.72 0 0 1 .41 1.33l.09.41.22.33a2.32 2.32 0 0 0 2 1 4.1 4.1 0 0 0 .78-.12 2.49 2.49 0 0 1 .35 0c.23 0 2.25 0 2.54 1.3a5.59 5.59 0 0 1 .11 1.74 2.24 2.24 0 0 0 1.92 2.59H23a2.9 2.9 0 0 0 .57.05 2.52 2.52 0 0 0 .79-.12h.34l.3.13a6.63 6.63 0 0 0 1.44.21h.16a6.63 6.63 0 0 0 1.4-.21l.28-.06a2 2 0 0 0 .34 0 2.5 2.5 0 0 0 .79.12 3 3 0 0 0 .59-.1h.1a2.24 2.24 0 0 0 1.9-2.61 5.59 5.59 0 0 1 .16-1.76c.29-1.26 2.31-1.3 2.54-1.3a2.45 2.45 0 0 1 .35 0 4.12 4.12 0 0 0 .76.07 2.32 2.32 0 0 0 2-1l.22-.33.12-.34a3.68 3.68 0 0 1 .44-1.35c.85-.44 2.5-1.79 1.53-5.54a4.71 4.71 0 0 0-.78-1.74 19.39 19.39 0 0 0-.34-6.83 32.73 32.73 0 0 0-2-7.39l-.11-.29c-.29-.75-1.09-1.93-4.64-3.34a5.11 5.11 0 0 0-1.82-.4 2.84 2.84 0 0 1-.66-.1 11 11 0 0 0-2.9-.24m0 1.68a12 12 0 0 1 2.47.18 12 12 0 0 1 2.28.43c1.09.43 3.32 1.41 3.69 2.39a31.46 31.46 0 0 1 2.07 7.33 19.62 19.62 0 0 1 .22 7.5.24.24 0 0 1 .15-.05c.18 0 .49.19.77 1.3.43 1.68.33 3.15-.71 3.64s-1.3 2.61-1.3 2.61a.75.75 0 0 1-.64.21 2.47 2.47 0 0 1-.45 0 3.78 3.78 0 0 0-.66 0c-1.31 0-3.69.45-4.18 2.6-.6 2.61.38 2.77-.87 3.1a1.37 1.37 0 0 1-.24 0 .53.53 0 0 1-.47-.24.17.17 0 0 0-.16-.1c-.17 0-.4.21-.6.21s-1.09.27-1.63.27h-.15c-.54 0-1.36-.27-1.63-.27s-.43-.21-.6-.21a.17.17 0 0 0-.16.1.53.53 0 0 1-.47.18 1.36 1.36 0 0 1-.24 0c-1.25-.33-.27-.49-.87-3.1-.49-2.15-2.87-2.6-4.18-2.6a3.78 3.78 0 0 0-.66 0 2.47 2.47 0 0 1-.45 0 .75.75 0 0 1-.64-.21s-.27-2.12-1.3-2.61-1.14-2-.71-3.64c.29-1.11.6-1.3.78-1.3a.24.24 0 0 1 .15.05 19.6 19.6 0 0 1 .22-7.5 31.48 31.48 0 0 1 2.07-7.33c.38-1 2.61-2 3.7-2.39a12 12 0 0 1 2.28-.43 12 12 0 0 1 2.47-.18h.63"/><path class="cls-2" d="M36.13 28.72a6.4 6.4 0 0 0-2.57.61c-1.43.64-4.14 1.5-4.14 1.5a1.88 1.88 0 0 1-1.24-.18A4.06 4.06 0 0 0 27 30.2a.76.76 0 0 1-.12-.64.73.73 0 0 0-.4.35.72.72 0 0 0-.4-.35.69.69 0 0 1-.17.69 5.4 5.4 0 0 0-1.13.38 1.76 1.76 0 0 1-1.15.2s-2.71-.86-4.14-1.5a6.4 6.4 0 0 0-2.57-.61c-.89.29-.36 1.14-.11 1.57s.68-.46.82 1.89 1 1.78 3 1.92 2.32-2.1 2.32-2.1a6.57 6.57 0 0 1 3.6-1.33A7.2 7.2 0 0 1 30.11 32s.43 2.25 2.35 2.1 2.82.43 3-1.92.57-1.46.82-1.89.72-1.29-.15-1.57"/><path class="cls-3" d="M25.06 32.89s-.34 2.26-.4 2.83c0 .33-.16.4-.26.4a.26.26 0 0 1-.13 0 3.68 3.68 0 0 0 .36 1.6 1.09 1.09 0 0 0 1.08.72 1.65 1.65 0 0 0 .47-.07v-1.33L26 37l-.12-.44c-1-.22-.61-2-.61-2zM28 32.89l-.16 1.64s.38 1.76-.61 2l-.17.47h-.26v1.33a1.64 1.64 0 0 0 .47.07 1.1 1.1 0 0 0 1.08-.72 3.67 3.67 0 0 0 .36-1.6.26.26 0 0 1-.13 0c-.1 0-.22-.07-.26-.4-.06-.57-.4-2.83-.4-2.83"/></svg>