<svg id="Layer_1" data-name="Layer 1" xmlns="http://www.w3.org/2000/svg" viewBox="0 0 53 53"><defs><style>.cls-1{fill:#83becd}.cls-2{fill:#000101}.cls-3{fill:#231f20}.cls-4{fill:#62868d}</style></defs><title>icons</title><path class="cls-1" d="M1.225 26.5L26.497 1.228 51.77 26.5 26.496 51.772z"/><path class="cls-2" d="M26.5 51.77l.61-.61L2.45 26.5 26.5 2.45 50.55 26.5 25.89 51.16l.61.61.61-.61-.61.61.61.62L53 26.5 26.5 0 0 26.5 26.5 53l.61-.61-.61-.62z"/><path class="cls-2" d="M6.655 26.5L26.497 6.66l19.84 19.84-19.84 19.84z"/><path class="cls-1" d="M23.27 41.46v-2.59a12.57 12.57 0 0 1-2.84-1.14l-2 2-5.08-5.09 2-2a12.62 12.62 0 0 1-1.17-3h-2.7v-7.18h3a12.69 12.69 0 0 1 .7-1.66l-2-2 5.09-5.08 1.86 1.86a12.63 12.63 0 0 1 2.78-1.2v-2.83h7.19v2.82a12.63 12.63 0 0 1 2.9 1.27l1.92-1.92L40 18.8l-2.1 2.11a12.58 12.58 0 0 1 .81 2.09h2.82v7.19H38.7a12.64 12.64 0 0 1-1.28 2.92L39.36 35l-5.09 5.09L32.13 38a12.46 12.46 0 0 1-1.67.68v2.79h-7.19z"/><path class="cls-2" d="M30.94 10.68H22v3.06a13.46 13.46 0 0 0-1.76.76l-.79-.79-1.23-1.23L17 13.71l-3.86 3.86-1.22 1.23 1.23 1.2 1 1q-.14.3-.26.61H10.6v8.93h2.91a13.39 13.39 0 0 0 .77 2l-.91.91-1.23 1.23 1.22 1.23 3.86 3.86L18.45 41l1.23-1.23.91-.91a13.42 13.42 0 0 0 1.81.73v2.8h8.92v-3l.63-.39 1.1 1.1 1.23 1.23 1.23-1.23 3.86-3.86L40.59 35l-1.23-1.23-.86-.77a13.32 13.32 0 0 0 .83-1.9h3.07v-8.97h-3.06c-.12-.35-.26-.7-.41-1L40 20l1.22-1.23-1.22-1.2-3.86-3.86-1.23-1.23-1.21 1.23-.85.85a13.53 13.53 0 0 0-1.91-.83v-3.05zm-1.73 1.73V15a11.83 11.83 0 0 1 3.92 1.71l1.8-1.8 3.86 3.86-2 2a11.71 11.71 0 0 1 1.21 3.1h2.62v5.46H38a11.76 11.76 0 0 1-1.72 3.9L38.14 35l-3.86 3.86-2-2A11.77 11.77 0 0 1 29.6 38v2.57h-5.46v-2.39a11.75 11.75 0 0 1-3.85-1.54l-1.83 1.83-3.86-3.85 1.83-1.83a11.78 11.78 0 0 1-1.56-4h-2.53v-5.46h2.76a11.78 11.78 0 0 1 1.13-2.68l-1.85-1.85 3.86-3.86L20 16.67A11.77 11.77 0 0 1 23.75 15v-2.59h5.46z"/><path class="cls-2" d="M35.49 26.55a9 9 0 1 1-9-9 9 9 0 0 1 9 9"/><path class="cls-3" d="M36.65 26.55h-.3a9.87 9.87 0 1 1-2.89-7 9.84 9.84 0 0 1 2.89 7H37A10.48 10.48 0 1 0 26.48 37 10.48 10.48 0 0 0 37 26.55h-.3z"/><path class="cls-4" d="M31.27 19.97h-6.12l-2.54 7.37h2.32l-1.92 6.25 7.68-8.13h-2.86l3.44-5.49z"/><path class="cls-2" d="M31.27 19.12h-6.12a.86.86 0 0 0-.81.58l-2.54 7.36a.85.85 0 0 0 .81 1.13h1.16l-1.58 5.14a.85.85 0 0 0 1.44.84l7.66-8.1a.86.86 0 0 0-.6-1.46h-1.31L32 20.43a.85.85 0 0 0-.72-1.31m-8.66 8.22L25.15 20h6.12l-3.44 5.49h2.86L23 33.59l1.92-6.25h-2.31zm8.08-1.88z"/></svg>